<svg width="33" height="34" viewBox="0 0 33 34" fill="none" xmlns="http://www.w3.org/2000/svg">
<path d="M32.25 17C32.25 25.6985 25.1985 32.75 16.5 32.75C7.80152 32.75 0.75 25.6985 0.75 17C0.75 8.30152 7.80152 1.25 16.5 1.25C25.1985 1.25 32.25 8.30152 32.25 17Z" stroke="#B3C1D8" stroke-width="1.5"/>
<path fill-rule="evenodd" clip-rule="evenodd" d="M13.4552 17.7949C13.2445 17.584 13.1262 17.2981 13.1262 16.9999C13.1262 16.7018 13.2445 16.4159 13.4552 16.2049L17.6972 11.9614C17.9083 11.7505 18.1945 11.632 18.4928 11.6321C18.7912 11.6322 19.0774 11.7508 19.2883 11.9618C19.4993 12.1729 19.6177 12.4591 19.6177 12.7575C19.6176 13.0559 19.499 13.342 19.288 13.5529L15.841 16.9999L19.288 20.4469C19.493 20.659 19.6065 20.9431 19.6041 21.2381C19.6017 21.5331 19.4835 21.8153 19.275 22.024C19.0665 22.2327 18.7844 22.3511 18.4894 22.3538C18.1945 22.3565 17.9102 22.2433 17.698 22.0384L13.4545 17.7957L13.4552 17.7949Z" fill="#AB49C0"/>
</svg>
