<svg width="31" height="23" viewBox="0 0 31 23" fill="none" xmlns="http://www.w3.org/2000/svg">
<path d="M29.5883 20.6224L7.44797 19.1758C7.04503 19.1507 6.67028 18.788 6.61081 18.3638L5.41762 3.19895C5.357 2.77206 5.62634 2.42319 6.01943 2.42137L26.692 2.41589C27.0867 2.41818 27.4674 2.7983 27.5415 3.26443L30.1866 19.8389C30.2615 20.3018 29.993 20.6525 29.5883 20.6224Z" fill="url(#paint0_linear_431_502)"/>
<path d="M23.0407 22.9437L1.4178 21.3119C1.02393 21.2834 0.779117 20.8736 0.871019 20.3963L5.10219 3.29866C5.19429 2.81769 5.58815 2.42502 5.98221 2.42205L26.6571 2.41589C27.051 2.4184 27.2958 2.84689 27.2037 3.37281L23.9215 22.0594C23.8286 22.5821 23.4346 22.9775 23.0407 22.9437Z" fill="url(#paint1_linear_431_502)"/>
<path d="M21.938 20.6403L2.57285 19.2222C2.20389 19.1976 1.97433 18.8414 2.06082 18.4264L5.13568 3.56204C5.22199 3.14358 5.59095 2.80225 5.95991 2.79974L25.325 2.79449C25.694 2.79678 25.9235 3.16914 25.837 3.62615L22.7622 19.8714C22.6761 20.3259 22.3071 20.6697 21.938 20.6403Z" fill="url(#paint2_linear_431_502)"/>
<path d="M21.938 20.6411L2.57285 19.2231C2.20389 19.1985 1.97433 18.8423 2.06082 18.4273L5.13568 3.56289C5.22199 3.14444 5.59095 2.80311 5.95991 2.8006L25.325 2.79535C25.694 2.79763 25.9235 3.16999 25.837 3.627L22.7622 19.8722C22.6761 20.3267 22.3071 20.6706 21.938 20.6411Z" fill="url(#paint3_linear_431_502)"/>
<mask id="mask0_431_502" style="mask-type:luminance" maskUnits="userSpaceOnUse" x="0" y="1" width="25" height="18">
<path d="M21.0748 18.7386L1.41144 17.6578C1.30354 17.6489 1.19918 17.6086 1.10764 17.5406C1.01609 17.4725 0.940202 17.3787 0.886705 17.2677C0.833208 17.1566 0.803765 17.0316 0.800996 16.9038C0.798228 16.776 0.822218 16.6494 0.870834 16.5353C0.887631 16.4962 0.899603 16.4682 0.905781 16.455C1.92464 14.2752 2.76143 11.9833 3.40432 9.61188C4.03084 7.30105 4.61372 4.89506 4.63014 2.44756C4.63089 2.34516 4.64881 2.24396 4.68288 2.1498C4.71695 2.05565 4.76648 1.97042 4.82861 1.89903C4.89073 1.82765 4.96423 1.77154 5.04483 1.73395C5.12543 1.69635 5.21153 1.67802 5.29817 1.68002L24.3273 1.98576C24.4173 1.98787 24.506 2.01183 24.5878 2.05615C24.6696 2.10046 24.7428 2.16418 24.8029 2.24335C24.863 2.32252 24.9087 2.41545 24.9371 2.51637C24.9655 2.61728 24.9761 2.72402 24.9681 2.82996C24.7886 5.16612 24.4808 7.58032 24.0244 9.86423C23.5892 12.0432 22.9598 14.1599 22.3617 16.2813C22.174 16.9464 21.9551 17.6076 21.727 18.2597C21.6746 18.4104 21.5834 18.5377 21.4664 18.6236C21.3493 18.7096 21.2123 18.7498 21.0748 18.7386Z" fill="white"/>
</mask>
<g mask="url(#mask0_431_502)">
<path d="M21.0748 18.7386L1.41144 17.6578C1.30354 17.6489 1.19918 17.6086 1.10764 17.5406C1.01609 17.4725 0.940202 17.3787 0.886705 17.2677C0.833208 17.1566 0.803765 17.0316 0.800996 16.9038C0.798228 16.776 0.822218 16.6494 0.870834 16.5353C0.887631 16.4962 0.899603 16.4682 0.905781 16.455C1.92464 14.2752 2.76143 11.9833 3.40432 9.61188C4.03084 7.30105 4.61372 4.89506 4.63014 2.44756C4.63089 2.34516 4.64881 2.24396 4.68288 2.1498C4.71695 2.05565 4.76648 1.97042 4.82861 1.89903C4.89073 1.82765 4.96423 1.77154 5.04483 1.73395C5.12543 1.69635 5.21153 1.67802 5.29817 1.68002L24.3273 1.98576C24.4173 1.98787 24.506 2.01183 24.5878 2.05615C24.6696 2.10046 24.7428 2.16418 24.8029 2.24335C24.863 2.32252 24.9087 2.41545 24.9371 2.51637C24.9655 2.61728 24.9761 2.72402 24.9681 2.82996C24.7886 5.16612 24.4808 7.58032 24.0244 9.86423C23.5892 12.0432 22.9598 14.1599 22.3617 16.2813C22.174 16.9464 21.9551 17.6076 21.727 18.2597C21.6746 18.4104 21.5834 18.5377 21.4664 18.6236C21.3493 18.7096 21.2123 18.7498 21.0748 18.7386Z" fill="url(#paint4_radial_431_502)"/>
<path d="M21.0748 18.7381L1.41144 17.6573C1.30354 17.6484 1.19918 17.6081 1.10764 17.5401C1.01609 17.472 0.940202 17.3783 0.886705 17.2672C0.833208 17.1561 0.803765 17.0311 0.800996 16.9033C0.798228 16.7756 0.822218 16.649 0.870834 16.5348C0.887631 16.4958 0.899603 16.4677 0.905781 16.4545C1.92464 14.2747 2.76143 11.9829 3.40432 9.61139C4.03084 7.30056 4.61372 4.89458 4.63014 2.44707C4.63089 2.34467 4.64881 2.24347 4.68288 2.14932C4.71695 2.05516 4.76648 1.96993 4.82861 1.89855C4.89073 1.82716 4.96423 1.77105 5.04483 1.73346C5.12543 1.69586 5.21153 1.67753 5.29817 1.67953L24.3273 1.98527C24.4173 1.98739 24.506 2.01134 24.5878 2.05566C24.6696 2.09997 24.7428 2.16369 24.8029 2.24287C24.863 2.32204 24.9087 2.41496 24.9371 2.51588C24.9655 2.61679 24.9761 2.72353 24.9681 2.82947C24.7886 5.16563 24.4808 7.57983 24.0244 9.86374C23.5892 12.0427 22.9598 14.1594 22.3617 16.2808C22.174 16.9459 21.9551 17.6071 21.727 18.2592C21.6746 18.4099 21.5834 18.5372 21.4664 18.6231C21.3493 18.7091 21.2123 18.7493 21.0748 18.7381Z" fill="url(#paint5_linear_431_502)"/>
</g>
<path d="M9.07931 7.68535L7.52277 7.62626C7.27486 7.6169 7.10998 7.39969 7.15033 7.14164C7.23515 6.60089 7.30743 6.06129 7.36715 5.52282C7.39573 5.26591 7.61698 5.06649 7.86547 5.07471L9.42588 5.13357C9.67417 5.1427 9.85507 5.35854 9.82592 5.61568C9.76465 6.15415 9.69096 6.69413 9.60486 7.23564C9.56431 7.49301 9.32702 7.69493 9.07931 7.68535ZM13.5576 7.38463C13.646 6.84358 13.722 6.30359 13.7854 5.76467C13.8158 5.50753 13.6358 5.29169 13.3875 5.28234L11.8269 5.22347C11.5784 5.21412 11.3562 5.41467 11.3265 5.67181C11.2644 6.21043 11.1899 6.75041 11.1029 7.29177C11.0614 7.55005 11.2253 7.76726 11.4732 7.77662L13.0294 7.83571C13.2765 7.84506 13.5148 7.64291 13.5576 7.38463ZM17.5084 7.53476C17.5992 6.99356 17.6774 6.45357 17.7432 5.9148C17.7747 5.65744 17.5957 5.44159 17.3474 5.43224L15.787 5.37337C15.5385 5.36402 15.3155 5.56457 15.285 5.82194C15.2207 6.36086 15.1438 6.90085 15.0545 7.4419C15.012 7.70018 15.175 7.91762 15.4227 7.92698L16.9788 7.98607C17.226 7.9952 17.4646 7.79304 17.5079 7.53476H17.5084ZM21.4587 7.68467C21.5518 7.14346 21.6323 6.60348 21.7004 6.06471C21.7331 5.80711 21.5548 5.59127 21.3066 5.58191L19.746 5.52305C19.4975 5.51369 19.2735 5.71448 19.2417 5.97185C19.175 6.51107 19.0958 7.05106 19.0042 7.5918C18.9605 7.85008 19.1227 8.06752 19.371 8.07688L20.9268 8.13597C21.1737 8.14533 21.4137 7.94318 21.4581 7.68467H21.4587ZM8.22207 11.3916L6.67093 11.3325C6.424 11.323 6.27919 11.106 6.34271 10.8477C6.47735 10.3069 6.59963 9.76742 6.70955 9.2291C6.76187 8.97196 7.00167 8.77164 7.25015 8.78099L8.80554 8.83963C9.05306 8.84898 9.21408 9.0646 9.16118 9.32174C9.05022 9.8602 8.92672 10.4002 8.79067 10.9417C8.72483 11.1991 8.46882 11.401 8.22207 11.3916ZM12.7274 11.0902C12.8656 10.5493 12.9915 10.0093 13.1049 9.47027C13.1589 9.2129 12.9989 8.99706 12.7513 8.98771L11.1962 8.92907C10.9484 8.91971 10.7079 9.12027 10.6544 9.37741C10.5427 9.91587 10.4183 10.4559 10.2814 10.9974C10.2159 11.2556 10.36 11.4729 10.6067 11.4822L12.1577 11.5415C12.4046 11.5511 12.6616 11.3492 12.7274 11.0902ZM16.6643 11.2401C16.805 10.6989 16.9332 10.1589 17.0487 9.62017C17.104 9.36281 16.9449 9.14696 16.6975 9.13761L15.1425 9.07874C14.8948 9.06939 14.6533 9.27017 14.5989 9.52754C14.4848 10.0662 14.3581 10.6061 14.2187 11.1475C14.1523 11.4058 14.2959 11.623 14.5421 11.6323L16.0928 11.6917C16.3396 11.7013 16.5975 11.4991 16.6645 11.2408L16.6643 11.2401ZM20.6009 11.3903C20.7438 10.8488 20.8742 10.3084 20.9922 9.76917C21.0486 9.5118 20.8903 9.29573 20.643 9.28637L19.0882 9.22751C18.8406 9.21838 18.5981 9.41893 18.5425 9.6763C18.4267 10.2154 18.298 10.7554 18.1564 11.2963C18.0888 11.5545 18.2309 11.772 18.4777 11.7813L20.028 11.8407C20.2742 11.8514 20.5327 11.6492 20.6011 11.3909L20.6009 11.3903ZM7.0787 15.0375L5.53278 14.9784C5.2868 14.9688 5.16111 14.7516 5.24819 14.4935C5.43045 13.9528 5.60016 13.4132 5.75732 12.8749C5.83242 12.6178 6.08998 12.4175 6.33653 12.4268L7.8869 12.4854C8.13365 12.4948 8.27555 12.7104 8.19968 12.9676C8.0411 13.506 7.86991 14.046 7.6861 14.5875C7.59864 14.8456 7.32467 15.0475 7.0787 15.0375ZM11.6107 14.7365C11.7971 14.1958 11.9708 13.6558 12.132 13.1165C12.2092 12.8594 12.0679 12.6436 11.8211 12.6342L10.2711 12.5756C10.0244 12.5662 9.76587 12.7668 9.6898 13.0239C9.53033 13.5624 9.35824 14.1024 9.17353 14.6439C9.0853 14.9022 9.21002 15.1194 9.45619 15.1287L11.0017 15.188C11.2471 15.1972 11.5219 14.9957 11.6107 14.7372V14.7365ZM15.5345 14.8866C15.7232 14.3454 15.8991 13.8054 16.0621 13.2667C16.1394 13.0093 16.0002 12.7935 15.7532 12.7841L14.2036 12.7252C13.9569 12.7159 13.6974 12.9167 13.6202 13.1738C13.4584 13.7127 13.284 14.2527 13.0969 14.7938C13.0077 15.0523 13.1315 15.2695 13.3775 15.2788L14.9221 15.3379C15.169 15.3478 15.4445 15.1456 15.5345 14.8873V14.8866ZM19.4577 15.0368C19.6485 14.4953 19.8267 13.9549 19.9923 13.4157C20.0715 13.1583 19.9325 12.9422 19.6857 12.9329L18.1363 12.874C17.8896 12.8649 17.6293 13.0654 17.5509 13.3228C17.3868 13.8619 17.2101 14.4019 17.0207 14.9428C16.9304 15.201 17.0532 15.4185 17.2992 15.4278L18.8437 15.4872C19.0901 15.4979 19.3666 15.2957 19.4577 15.0375V15.0368Z" fill="url(#paint6_linear_431_502)"/>
<path d="M7.4494 2.02906C7.50423 1.93529 7.55115 1.83398 7.60386 1.73245C7.62476 1.69532 7.64218 1.65562 7.6558 1.61403C7.66126 1.58797 7.66963 1.56288 7.6807 1.53942C7.71449 1.47964 7.78708 1.47759 7.84752 1.48535C8.08866 1.51592 8.15798 1.67541 8.14832 1.94738C8.13172 2.41831 7.97571 2.87121 7.69093 3.19977C7.46388 3.46193 7.18277 3.6027 6.8644 3.59837C6.80413 3.60089 6.74407 3.58877 6.68792 3.56277C6.57807 3.50459 6.51416 3.35743 6.51416 3.21551C6.51416 2.70305 6.98738 2.51687 7.26714 2.26338C7.33797 2.19712 7.39948 2.11804 7.4494 2.02906Z" fill="url(#paint7_radial_431_502)"/>
<path d="M8.11635 1.55305C8.10302 1.48027 8.08777 1.40794 8.06982 1.33653C8.03759 1.20406 7.99559 1.07519 7.94432 0.951387C7.85821 0.747181 7.73696 0.551417 7.56551 0.43802C7.45708 0.367326 7.33386 0.334563 7.21026 0.343561C6.73588 0.37596 6.43797 0.936785 6.34781 1.6968C6.32111 1.92511 6.312 2.15582 6.32058 2.38608C6.32731 2.59347 6.35019 2.79969 6.38893 3.00212C6.43623 3.24831 6.50671 3.69596 6.80423 3.63025C6.97973 3.59146 6.98301 3.32908 6.92007 3.17392C6.8664 3.03954 6.79882 2.93504 6.77122 2.78605C6.74791 2.64722 6.73947 2.50549 6.74612 2.36417C6.75255 2.14279 6.77353 1.92233 6.80886 1.70478C6.87972 1.28177 7.01236 0.940892 7.22358 0.933362C7.3597 0.928571 7.44812 1.04881 7.49929 1.18571C7.53129 1.27444 7.55505 1.367 7.57014 1.46179C7.58347 1.54028 7.58424 1.6215 7.59949 1.69953C7.60065 1.70524 7.60181 1.71117 7.60336 1.71642L8.15303 1.72509C8.15303 1.67079 8.12465 1.59663 8.11635 1.55305Z" fill="url(#paint8_radial_431_502)"/>
<path d="M8.11641 1.55275C8.10308 1.47996 8.08783 1.40764 8.06988 1.33622C8.03765 1.20376 7.99565 1.07488 7.94438 0.951082C7.85827 0.746876 7.73702 0.551112 7.56557 0.437715C7.45714 0.367021 7.33393 0.334258 7.21032 0.343256C6.73594 0.375655 6.43804 0.93648 6.34787 1.69649C6.32117 1.92481 6.31206 2.15551 6.32064 2.38577C6.32737 2.59316 6.35025 2.79938 6.38899 3.00181C6.4363 3.248 6.50677 3.69566 6.80429 3.62995C6.97979 3.59116 6.98308 3.32877 6.92013 3.17362C6.86646 3.03923 6.79889 2.93473 6.77128 2.78574C6.74797 2.64692 6.73953 2.50518 6.74618 2.36387C6.75261 2.14248 6.77359 1.92202 6.80892 1.70448C6.87978 1.28146 7.01242 0.940587 7.22364 0.933057C7.35976 0.928266 7.44819 1.04851 7.49935 1.18541C7.53135 1.27413 7.55511 1.3667 7.57021 1.46148C7.58353 1.53997 7.5843 1.6212 7.59955 1.69923C7.60071 1.70493 7.60187 1.71087 7.60342 1.71611L8.15309 1.72478C8.15309 1.67048 8.12471 1.59633 8.11641 1.55275Z" fill="url(#paint9_radial_431_502)"/>
<path d="M8.11641 1.55275C8.10308 1.47996 8.08783 1.40764 8.06988 1.33622C8.03765 1.20376 7.99565 1.07488 7.94438 0.951082C7.85827 0.746876 7.73702 0.551112 7.56557 0.437715C7.45714 0.367021 7.33393 0.334258 7.21032 0.343256C6.73594 0.375655 6.43804 0.93648 6.34787 1.69649C6.32117 1.92481 6.31206 2.15551 6.32064 2.38577C6.32737 2.59316 6.35025 2.79938 6.38899 3.00181C6.4363 3.248 6.50677 3.69566 6.80429 3.62995C6.97979 3.59116 6.98308 3.32877 6.92013 3.17362C6.86646 3.03923 6.79889 2.93473 6.77128 2.78574C6.74797 2.64692 6.73953 2.50518 6.74618 2.36387C6.75261 2.14248 6.77359 1.92202 6.80892 1.70448C6.87978 1.28146 7.01242 0.940587 7.22364 0.933057C7.35976 0.928266 7.44819 1.04851 7.49935 1.18541C7.53135 1.27413 7.55511 1.3667 7.57021 1.46148C7.58353 1.53997 7.5843 1.6212 7.59955 1.69923C7.60071 1.70493 7.60187 1.71087 7.60342 1.71611L8.15309 1.72478C8.15309 1.67048 8.12471 1.59633 8.11641 1.55275Z" fill="url(#paint10_radial_431_502)"/>
<path d="M11.2962 2.08501C11.351 1.99123 11.3978 1.8897 11.4507 1.78839C11.4715 1.75124 11.4889 1.71154 11.5026 1.66998C11.5081 1.64394 11.5164 1.61886 11.5273 1.59537C11.5613 1.53559 11.6339 1.53354 11.6943 1.54106C11.9355 1.57164 12.0048 1.73135 11.9951 2.00309C11.9785 2.47425 11.8214 2.92716 11.5377 3.25571C11.3105 3.51787 11.0296 3.65842 10.7112 3.65431C10.6512 3.65635 10.5915 3.64401 10.5357 3.61803C10.4258 3.55962 10.3619 3.41269 10.3619 3.27054C10.3619 2.75831 10.8352 2.57191 11.1149 2.31864C11.1854 2.2525 11.2465 2.17365 11.2962 2.08501Z" fill="url(#paint11_radial_431_502)"/>
<path d="M11.963 1.60871C11.9496 1.53592 11.9342 1.46359 11.9164 1.39218C11.8842 1.25979 11.8422 1.13099 11.7909 1.00727C11.7048 0.803062 11.5834 0.607298 11.4121 0.4939C11.3037 0.423099 11.1805 0.390329 11.0569 0.399441C10.5825 0.431612 10.2846 0.992665 10.1944 1.75268C10.1676 1.98098 10.1585 2.2117 10.1672 2.44196C10.1738 2.64935 10.1966 2.85558 10.2354 3.058C10.2829 3.30419 10.3533 3.75184 10.6508 3.68613C10.8262 3.64734 10.8296 3.38496 10.7667 3.2298C10.713 3.09542 10.6454 2.99092 10.6178 2.84193C10.5948 2.70321 10.5867 2.56163 10.5935 2.42051C10.6 2.19913 10.6209 1.97867 10.6563 1.76112C10.7271 1.33833 10.8596 0.997229 11.0708 0.989927C11.2071 0.984908 11.2955 1.10538 11.3467 1.24091C11.3786 1.33007 11.4021 1.42312 11.4168 1.51835C11.4303 1.59684 11.431 1.67807 11.4463 1.7561C11.4475 1.7618 11.4486 1.76751 11.45 1.77298L11.9998 1.78165C11.9996 1.72667 11.9713 1.65251 11.963 1.60871Z" fill="url(#paint12_radial_431_502)"/>
<path d="M11.963 1.60791C11.9496 1.53513 11.9342 1.4628 11.9164 1.39139C11.8842 1.25899 11.8422 1.1302 11.7909 1.00647C11.7048 0.802268 11.5834 0.606504 11.4121 0.493107C11.3037 0.422306 11.1805 0.389536 11.0569 0.398647C10.5825 0.430818 10.2846 0.991872 10.1944 1.75188C10.1676 1.98019 10.1585 2.2109 10.1672 2.44116C10.1738 2.64856 10.1966 2.85478 10.2354 3.0572C10.2829 3.30339 10.3533 3.75105 10.6508 3.68534C10.8262 3.64655 10.8296 3.38416 10.7667 3.22901C10.713 3.09462 10.6454 2.99012 10.6178 2.84113C10.5948 2.70242 10.5867 2.56084 10.5935 2.41972C10.6 2.19833 10.6209 1.97787 10.6563 1.76033C10.7271 1.33754 10.8596 0.996435 11.0708 0.989134C11.2071 0.984114 11.2955 1.10458 11.3467 1.24011C11.3786 1.32928 11.4021 1.42232 11.4168 1.51756C11.4303 1.59605 11.431 1.67727 11.4463 1.75531C11.4475 1.76101 11.4486 1.76671 11.45 1.77219L11.9998 1.78086C11.9996 1.72587 11.9713 1.65172 11.963 1.60791Z" fill="url(#paint13_radial_431_502)"/>
<path d="M11.963 1.60791C11.9496 1.53513 11.9342 1.4628 11.9164 1.39139C11.8842 1.25899 11.8422 1.1302 11.7909 1.00647C11.7048 0.802268 11.5834 0.606504 11.4121 0.493107C11.3037 0.422306 11.1805 0.389536 11.0569 0.398647C10.5825 0.430818 10.2846 0.991872 10.1944 1.75188C10.1676 1.98019 10.1585 2.2109 10.1672 2.44116C10.1738 2.64856 10.1966 2.85478 10.2354 3.0572C10.2829 3.30339 10.3533 3.75105 10.6508 3.68534C10.8262 3.64655 10.8296 3.38416 10.7667 3.22901C10.713 3.09462 10.6454 2.99012 10.6178 2.84113C10.5948 2.70242 10.5867 2.56084 10.5935 2.41972C10.6 2.19833 10.6209 1.97787 10.6563 1.76033C10.7271 1.33754 10.8596 0.996435 11.0708 0.989134C11.2071 0.984114 11.2955 1.10458 11.3467 1.24011C11.3786 1.32928 11.4021 1.42232 11.4168 1.51756C11.4303 1.59605 11.431 1.67727 11.4463 1.75531C11.4475 1.76101 11.4486 1.76671 11.45 1.77219L11.9998 1.78086C11.9996 1.72587 11.9713 1.65172 11.963 1.60791Z" fill="url(#paint14_radial_431_502)"/>
<path d="M15.1431 2.13967C15.1979 2.04612 15.2448 1.94459 15.2976 1.84306C15.3184 1.80587 15.3358 1.76608 15.3493 1.72441C15.355 1.69843 15.3633 1.67337 15.3742 1.6498C15.4082 1.59025 15.4808 1.58797 15.5412 1.59573C15.7824 1.6263 15.8517 1.78602 15.842 2.05776C15.8252 2.52892 15.6692 2.98182 15.3846 3.31038C15.1574 3.57253 14.8763 3.71308 14.5579 3.70898C14.4977 3.71142 14.4377 3.69922 14.3816 3.67315C14.2718 3.61497 14.2079 3.46781 14.2079 3.32589C14.2079 2.81366 14.6811 2.62725 14.9608 2.37377C15.0318 2.30771 15.0933 2.22868 15.1431 2.13967Z" fill="url(#paint15_radial_431_502)"/>
<path d="M15.8096 1.66379C15.7961 1.591 15.7808 1.51867 15.7629 1.44726C15.7307 1.31487 15.6888 1.18608 15.6376 1.06235C15.5513 0.857 15.43 0.662149 15.2588 0.54898C15.1504 0.478095 15.0271 0.44532 14.9035 0.454521C14.4292 0.486692 14.1312 1.04774 14.0411 1.80753C14.0143 2.03591 14.0051 2.26669 14.0137 2.49704C14.0204 2.70443 14.0433 2.91064 14.082 3.11308C14.1295 3.35927 14.2 3.80692 14.4975 3.74121C14.6728 3.7022 14.6763 3.43981 14.6133 3.28488C14.5595 3.15027 14.4921 3.04577 14.4643 2.89701C14.4411 2.75808 14.4328 2.61628 14.4394 2.47491C14.4458 2.25352 14.4668 2.03306 14.5021 1.81551C14.573 1.3925 14.7054 1.05162 14.9167 1.04409C15.053 1.0393 15.1414 1.15977 15.1926 1.29644C15.2245 1.38561 15.248 1.47865 15.2626 1.57389C15.2762 1.65238 15.2769 1.7336 15.2922 1.81164C15.2933 1.81734 15.2943 1.82304 15.2959 1.82829L15.8455 1.83719C15.8461 1.78129 15.8179 1.70759 15.8096 1.66379Z" fill="url(#paint16_radial_431_502)"/>
<path d="M15.8096 1.66379C15.7961 1.591 15.7808 1.51867 15.7629 1.44726C15.7307 1.31487 15.6888 1.18608 15.6376 1.06235C15.5513 0.857 15.43 0.662149 15.2588 0.54898C15.1504 0.478095 15.0271 0.44532 14.9035 0.454521C14.4292 0.486692 14.1312 1.04774 14.0411 1.80753C14.0143 2.03591 14.0051 2.26669 14.0137 2.49704C14.0204 2.70443 14.0433 2.91064 14.082 3.11308C14.1295 3.35927 14.2 3.80692 14.4975 3.74121C14.6728 3.7022 14.6763 3.43981 14.6133 3.28488C14.5595 3.15027 14.4921 3.04577 14.4643 2.89701C14.4411 2.75808 14.4328 2.61628 14.4394 2.47491C14.4458 2.25352 14.4668 2.03306 14.5021 1.81551C14.573 1.3925 14.7054 1.05162 14.9167 1.04409C15.053 1.0393 15.1414 1.15977 15.1926 1.29644C15.2245 1.38561 15.248 1.47865 15.2626 1.57389C15.2762 1.65238 15.2769 1.7336 15.2922 1.81164C15.2933 1.81734 15.2943 1.82304 15.2959 1.82829L15.8455 1.83719C15.8461 1.78129 15.8179 1.70759 15.8096 1.66379Z" fill="url(#paint17_radial_431_502)"/>
<path d="M15.8096 1.66379C15.7961 1.591 15.7808 1.51867 15.7629 1.44726C15.7307 1.31487 15.6888 1.18608 15.6376 1.06235C15.5513 0.857 15.43 0.662149 15.2588 0.54898C15.1504 0.478095 15.0271 0.44532 14.9035 0.454521C14.4292 0.486692 14.1312 1.04774 14.0411 1.80753C14.0143 2.03591 14.0051 2.26669 14.0137 2.49704C14.0204 2.70443 14.0433 2.91064 14.082 3.11308C14.1295 3.35927 14.2 3.80692 14.4975 3.74121C14.6728 3.7022 14.6763 3.43981 14.6133 3.28488C14.5595 3.15027 14.4921 3.04577 14.4643 2.89701C14.4411 2.75808 14.4328 2.61628 14.4394 2.47491C14.4458 2.25352 14.4668 2.03306 14.5021 1.81551C14.573 1.3925 14.7054 1.05162 14.9167 1.04409C15.053 1.0393 15.1414 1.15977 15.1926 1.29644C15.2245 1.38561 15.248 1.47865 15.2626 1.57389C15.2762 1.65238 15.2769 1.7336 15.2922 1.81164C15.2933 1.81734 15.2943 1.82304 15.2959 1.82829L15.8455 1.83719C15.8461 1.78129 15.8179 1.70759 15.8096 1.66379Z" fill="url(#paint18_radial_431_502)"/>
<path d="M18.9895 2.20838C19.0444 2.11461 19.0913 2.0133 19.144 1.91177C19.1649 1.87469 19.1823 1.83497 19.1957 1.79335C19.2014 1.76737 19.2098 1.74231 19.2206 1.71874C19.2544 1.65896 19.3272 1.65691 19.3876 1.66467C19.6286 1.69524 19.6979 1.85473 19.6885 2.1267C19.6717 2.59763 19.5147 3.05053 19.2311 3.37909C19.0038 3.64125 18.7227 3.78202 18.4043 3.77769C18.3441 3.78021 18.2841 3.76809 18.2281 3.74209C18.1182 3.68391 18.0543 3.53675 18.0543 3.39483C18.0543 2.88238 18.5275 2.69619 18.8073 2.44271C18.8782 2.37657 18.9397 2.29746 18.9895 2.20838Z" fill="url(#paint19_radial_431_502)"/>
<path d="M19.6566 1.73126C19.6431 1.65848 19.6278 1.58615 19.6098 1.51474C19.5776 1.38231 19.5357 1.25344 19.4845 1.1296C19.3982 0.924249 19.277 0.729625 19.1057 0.616228C18.9973 0.545582 18.8741 0.512822 18.7505 0.521769C18.2761 0.554168 17.9782 1.11499 17.8878 1.875C17.8612 2.10333 17.8521 2.33403 17.8606 2.56429C17.8673 2.77168 17.8902 2.97789 17.929 3.18033C17.9765 3.42651 18.0469 3.87417 18.3443 3.80846C18.5198 3.76967 18.523 3.50728 18.4601 3.35213C18.4062 3.21752 18.3387 3.11302 18.3111 2.96426C18.2879 2.82541 18.2795 2.68368 18.2861 2.54238C18.2925 2.32099 18.3135 2.10052 18.3489 1.88299C18.4198 1.45998 18.5522 1.1191 18.7634 1.11157C18.8997 1.10678 18.9882 1.22702 19.0393 1.36392C19.0712 1.45301 19.0947 1.54597 19.1094 1.64114C19.1229 1.71985 19.1235 1.80085 19.1389 1.87888C19.1399 1.8846 19.1411 1.89024 19.1426 1.89577L19.6923 1.90444C19.6931 1.84945 19.6647 1.77484 19.6566 1.73126Z" fill="url(#paint20_radial_431_502)"/>
<path d="M19.6566 1.73212C19.6431 1.65933 19.6278 1.587 19.6098 1.51559C19.5776 1.38316 19.5357 1.2543 19.4845 1.13045C19.3982 0.925103 19.277 0.73048 19.1057 0.617083C18.9973 0.546436 18.8741 0.513677 18.7505 0.522623C18.2761 0.555022 17.9782 1.11585 17.8878 1.87586C17.8612 2.10418 17.8521 2.33488 17.8606 2.56514C17.8673 2.77253 17.8902 2.97875 17.929 3.18118C17.9765 3.42737 18.0469 3.87502 18.3443 3.80931C18.5198 3.77053 18.523 3.50814 18.4601 3.35299C18.4062 3.21837 18.3387 3.11387 18.3111 2.96511C18.2879 2.82626 18.2795 2.68454 18.2861 2.54324C18.2925 2.32184 18.3135 2.10137 18.3489 1.88384C18.4198 1.46083 18.5522 1.11995 18.7634 1.11243C18.8997 1.10763 18.9882 1.22788 19.0393 1.36477C19.0712 1.45386 19.0947 1.54683 19.1094 1.64199C19.1229 1.72071 19.1235 1.80171 19.1389 1.87974C19.1399 1.88546 19.1411 1.8911 19.1426 1.89662L19.6923 1.90529C19.6931 1.8503 19.6647 1.7757 19.6566 1.73212Z" fill="url(#paint21_radial_431_502)"/>
<path d="M19.6566 1.73212C19.6431 1.65933 19.6278 1.587 19.6098 1.51559C19.5776 1.38316 19.5357 1.2543 19.4845 1.13045C19.3982 0.925103 19.277 0.73048 19.1057 0.617083C18.9973 0.546436 18.8741 0.513677 18.7505 0.522623C18.2761 0.555022 17.9782 1.11585 17.8878 1.87586C17.8612 2.10418 17.8521 2.33488 17.8606 2.56514C17.8673 2.77253 17.8902 2.97875 17.929 3.18118C17.9765 3.42737 18.0469 3.87502 18.3443 3.80931C18.5198 3.77053 18.523 3.50814 18.4601 3.35299C18.4062 3.21837 18.3387 3.11387 18.3111 2.96511C18.2879 2.82626 18.2795 2.68454 18.2861 2.54324C18.2925 2.32184 18.3135 2.10137 18.3489 1.88384C18.4198 1.46083 18.5522 1.11995 18.7634 1.11243C18.8997 1.10763 18.9882 1.22788 19.0393 1.36477C19.0712 1.45386 19.0947 1.54683 19.1094 1.64199C19.1229 1.72071 19.1235 1.80171 19.1389 1.87974C19.1399 1.88546 19.1411 1.8911 19.1426 1.89662L19.6923 1.90529C19.6931 1.8503 19.6647 1.7757 19.6566 1.73212Z" fill="url(#paint22_radial_431_502)"/>
<path d="M22.8361 2.28023C22.8909 2.18646 22.9379 2.08493 22.9906 1.98362C23.0114 1.94638 23.0287 1.90661 23.0423 1.86498C23.0479 1.83896 23.0563 1.81388 23.0672 1.79037C23.101 1.73082 23.1736 1.72854 23.2342 1.73629C23.4752 1.76687 23.5445 1.92658 23.5348 2.19832C23.5182 2.66948 23.3622 3.12238 23.0775 3.45094C22.8506 3.71241 22.5695 3.85296 22.2511 3.84886C22.1909 3.85108 22.1308 3.83865 22.0748 3.81235C21.965 3.75417 21.9011 3.607 21.9011 3.46509C21.9011 2.95286 22.3743 2.76645 22.654 2.51319C22.7248 2.44739 22.7862 2.36876 22.8361 2.28023Z" fill="url(#paint23_radial_431_502)"/>
<path d="M23.5031 1.8042C23.4896 1.73141 23.4744 1.65908 23.4564 1.58767C23.4242 1.45532 23.3822 1.32653 23.3311 1.20276C23.2448 0.998551 23.1236 0.802559 22.9523 0.68939C22.8438 0.618606 22.7205 0.585839 22.5969 0.594931C22.1227 0.627102 21.8255 1.18816 21.7344 1.94794C21.7078 2.17634 21.6987 2.40711 21.7072 2.63745C21.7139 2.84484 21.7368 3.05105 21.7755 3.25349C21.8228 3.49968 21.8935 3.94733 22.1908 3.88162C22.3663 3.84283 22.3696 3.58022 22.3067 3.42529C22.253 3.29068 22.1854 3.18618 22.1578 3.03742C22.1346 2.89851 22.1262 2.75669 22.1329 2.61532C22.1393 2.39394 22.1602 2.17347 22.1955 1.95592C22.2665 1.53314 22.399 1.19203 22.6102 1.1845C22.7463 1.17971 22.8349 1.30018 22.8859 1.43685C22.918 1.52555 22.9417 1.61812 22.9567 1.71293C22.9701 1.79142 22.9708 1.87264 22.9861 1.95068C22.9872 1.95638 22.9884 1.96208 22.9899 1.96733L23.5396 1.97623C23.5396 1.92102 23.5112 1.84709 23.5031 1.8042Z" fill="url(#paint24_radial_431_502)"/>
<path d="M23.5031 1.8042C23.4896 1.73141 23.4744 1.65908 23.4564 1.58767C23.4242 1.45532 23.3822 1.32653 23.3311 1.20276C23.2448 0.998551 23.1236 0.802559 22.9523 0.68939C22.8438 0.618606 22.7205 0.585839 22.5969 0.594931C22.1227 0.627102 21.8255 1.18816 21.7344 1.94794C21.7078 2.17634 21.6987 2.40711 21.7072 2.63745C21.7139 2.84484 21.7368 3.05105 21.7755 3.25349C21.8228 3.49968 21.8935 3.94733 22.1908 3.88162C22.3663 3.84283 22.3696 3.58022 22.3067 3.42529C22.253 3.29068 22.1854 3.18618 22.1578 3.03742C22.1346 2.89851 22.1262 2.75669 22.1329 2.61532C22.1393 2.39394 22.1602 2.17347 22.1955 1.95592C22.2665 1.53314 22.399 1.19203 22.6102 1.1845C22.7463 1.17971 22.8349 1.30018 22.8859 1.43685C22.918 1.52555 22.9417 1.61812 22.9567 1.71293C22.9701 1.79142 22.9708 1.87264 22.9861 1.95068C22.9872 1.95638 22.9884 1.96208 22.9899 1.96733L23.5396 1.97623C23.5396 1.92102 23.5112 1.84709 23.5031 1.8042Z" fill="url(#paint25_radial_431_502)"/>
<path d="M23.5031 1.8042C23.4896 1.73141 23.4744 1.65908 23.4564 1.58767C23.4242 1.45532 23.3822 1.32653 23.3311 1.20276C23.2448 0.998551 23.1236 0.802559 22.9523 0.68939C22.8438 0.618606 22.7205 0.585839 22.5969 0.594931C22.1227 0.627102 21.8255 1.18816 21.7344 1.94794C21.7078 2.17634 21.6987 2.40711 21.7072 2.63745C21.7139 2.84484 21.7368 3.05105 21.7755 3.25349C21.8228 3.49968 21.8935 3.94733 22.1908 3.88162C22.3663 3.84283 22.3696 3.58022 22.3067 3.42529C22.253 3.29068 22.1854 3.18618 22.1578 3.03742C22.1346 2.89851 22.1262 2.75669 22.1329 2.61532C22.1393 2.39394 22.1602 2.17347 22.1955 1.95592C22.2665 1.53314 22.399 1.19203 22.6102 1.1845C22.7463 1.17971 22.8349 1.30018 22.8859 1.43685C22.918 1.52555 22.9417 1.61812 22.9567 1.71293C22.9701 1.79142 22.9708 1.87264 22.9861 1.95068C22.9872 1.95638 22.9884 1.96208 22.9899 1.96733L23.5396 1.97623C23.5396 1.92102 23.5112 1.84709 23.5031 1.8042Z" fill="url(#paint26_radial_431_502)"/>
<path d="M8.89558 7.68535L7.33903 7.62626C7.09113 7.6169 6.92625 7.39969 6.9666 7.14164C7.05142 6.60089 7.1237 6.06129 7.18342 5.52282C7.212 5.26591 7.43325 5.06649 7.68174 5.07471L9.24214 5.13357C9.49044 5.1427 9.67134 5.35854 9.64219 5.61568C9.58092 6.15415 9.50723 6.69413 9.42112 7.23564C9.38058 7.49301 9.14329 7.69493 8.89558 7.68535ZM16.4808 11.2408C16.6215 10.6996 16.7496 10.1596 16.8652 9.62086C16.9204 9.36349 16.7613 9.14765 16.514 9.13829L14.959 9.07943C14.7113 9.07007 14.4698 9.27086 14.4153 9.52822C14.3013 10.0668 14.1746 10.6068 14.0352 11.1482C13.9687 11.4065 14.1124 11.6237 14.3585 11.633L15.9093 11.6924C16.1559 11.7013 16.4138 11.4991 16.4808 11.2408Z" fill="url(#paint27_linear_431_502)"/>
<defs>
<linearGradient id="paint0_linear_431_502" x1="3.9626" y1="8.0525" x2="29.9195" y2="4.31866" gradientUnits="userSpaceOnUse">
<stop stop-color="#A62FC0"/>
<stop offset="0.18" stop-color="#6945A9"/>
<stop offset="0.26" stop-color="#6945A9"/>
<stop offset="0.83" stop-color="#9E2CB7"/>
<stop offset="0.85" stop-color="#9E2CB7"/>
<stop offset="0.87" stop-color="#A730C0"/>
<stop offset="0.88" stop-color="#A32ABD"/>
<stop offset="0.89" stop-color="#D364EB"/>
<stop offset="0.9" stop-color="#A02DB8"/>
<stop offset="1" stop-color="#8B19A4"/>
</linearGradient>
<linearGradient id="paint1_linear_431_502" x1="1.70283" y1="9.1025" x2="27.6343" y2="13.5154" gradientUnits="userSpaceOnUse">
<stop stop-color="#D964F2"/>
<stop offset="0.18" stop-color="#8B19A4"/>
<stop offset="0.25" stop-color="#8B19A4"/>
<stop offset="0.34" stop-color="#8B19A4"/>
<stop offset="0.44" stop-color="#8B19A4"/>
<stop offset="0.56" stop-color="#8B19A4"/>
<stop offset="0.74" stop-color="#8B19A4"/>
<stop offset="0.78" stop-color="#8B19A4"/>
<stop offset="0.82" stop-color="#8B19A4"/>
<stop offset="0.85" stop-color="#9E2CB7"/>
<stop offset="0.88" stop-color="#A02DB9"/>
<stop offset="0.9" stop-color="#CB3FEC"/>
<stop offset="1" stop-color="#BD27DE"/>
</linearGradient>
<linearGradient id="paint2_linear_431_502" x1="2.76498" y1="8.49217" x2="26.2858" y2="12.4949" gradientUnits="userSpaceOnUse">
<stop stop-color="#A6BBBE"/>
<stop offset="0.06" stop-color="#ECFCFF"/>
<stop offset="0.09" stop-color="#DEEEF1"/>
<stop offset="0.17" stop-color="#BDCCCF"/>
<stop offset="0.25" stop-color="#A1B0B3"/>
<stop offset="0.35" stop-color="#8C9A9D"/>
<stop offset="0.45" stop-color="#7D8B8E"/>
<stop offset="0.57" stop-color="#748285"/>
<stop offset="0.74" stop-color="#717F82"/>
<stop offset="0.78" stop-color="#748285"/>
<stop offset="0.81" stop-color="#7C8C8F"/>
<stop offset="0.84" stop-color="#8A9C9F"/>
<stop offset="0.87" stop-color="#9FB4B6"/>
<stop offset="0.9" stop-color="#BED8D9"/>
<stop offset="1" stop-color="#A6BBBE"/>
</linearGradient>
<linearGradient id="paint3_linear_431_502" x1="14.4841" y1="1.9844" x2="13.1641" y2="19.856" gradientUnits="userSpaceOnUse">
<stop stop-color="#F3F8FB"/>
<stop offset="0.03" stop-color="#DCEAED"/>
<stop offset="0.06" stop-color="#C4DFE0"/>
<stop offset="0.84" stop-color="#C1DADB"/>
<stop offset="0.9" stop-color="#E7F1F1"/>
<stop offset="0.95" stop-color="white"/>
<stop offset="1" stop-color="#A6BBBE"/>
</linearGradient>
<radialGradient id="paint4_radial_431_502" cx="0" cy="0" r="1" gradientUnits="userSpaceOnUse" gradientTransform="translate(-9.81338 1.41991) scale(34.8827 41.2227)">
<stop offset="0.41" stop-color="#F3F8FB"/>
<stop offset="0.47" stop-color="#DCEAED"/>
<stop offset="0.97" stop-color="#ECFCFF"/>
<stop offset="0.98" stop-color="#BED8D9"/>
<stop offset="1" stop-color="#A6BBBE"/>
</radialGradient>
<linearGradient id="paint5_linear_431_502" x1="13.1257" y1="1.6777" x2="12.4471" y2="18.1769" gradientUnits="userSpaceOnUse">
<stop stop-color="#F3F8FB"/>
<stop offset="0.03" stop-color="#DCEAED"/>
<stop offset="0.06" stop-color="#C4DFE0"/>
<stop offset="0.5" stop-color="#C1DADB"/>
<stop offset="0.75" stop-color="#E7F1F1"/>
<stop offset="0.94" stop-color="white"/>
<stop offset="1" stop-color="#A6BBBE"/>
</linearGradient>
<linearGradient id="paint6_linear_431_502" x1="13.2381" y1="4.6469" x2="12.877" y2="15.8038" gradientUnits="userSpaceOnUse">
<stop offset="0.05" stop-color="#BED8D9"/>
<stop offset="0.09" stop-color="#B1C8CA"/>
<stop offset="0.13" stop-color="#A9BEC1"/>
<stop offset="0.18" stop-color="#A6BBBE"/>
<stop offset="0.21" stop-color="#A3B7BA"/>
<stop offset="0.25" stop-color="#99ACAF"/>
<stop offset="0.28" stop-color="#899A9D"/>
<stop offset="0.3" stop-color="#728083"/>
<stop offset="0.31" stop-color="#717F82"/>
<stop offset="0.39" stop-color="#BED8D9"/>
<stop offset="0.42" stop-color="#B3CACC"/>
<stop offset="0.46" stop-color="#A9BFC2"/>
<stop offset="0.51" stop-color="#A6BBBE"/>
<stop offset="0.55" stop-color="#A4B8BB"/>
<stop offset="0.58" stop-color="#9CB0B3"/>
<stop offset="0.6" stop-color="#90A2A5"/>
<stop offset="0.62" stop-color="#7E8E91"/>
<stop offset="0.63" stop-color="#717F82"/>
<stop offset="0.72" stop-color="#BED8D9"/>
<stop offset="0.74" stop-color="#B7CFD1"/>
<stop offset="0.8" stop-color="#AAC0C3"/>
<stop offset="0.84" stop-color="#A6BBBE"/>
<stop offset="0.89" stop-color="#A4B9BC"/>
<stop offset="0.91" stop-color="#9DB1B4"/>
<stop offset="0.93" stop-color="#92A4A7"/>
<stop offset="0.94" stop-color="#819194"/>
<stop offset="0.95" stop-color="#717F82"/>
</linearGradient>
<radialGradient id="paint7_radial_431_502" cx="0" cy="0" r="1" gradientUnits="userSpaceOnUse" gradientTransform="translate(6.17768 1.60128) rotate(10.5019) scale(2.18675 2.55982)">
<stop offset="0.74" stop-color="#A6BBBE"/>
<stop offset="0.85" stop-color="#A6BBBE"/>
<stop offset="0.98" stop-color="#A6BBBE"/>
</radialGradient>
<radialGradient id="paint8_radial_431_502" cx="0" cy="0" r="1" gradientUnits="userSpaceOnUse" gradientTransform="translate(9.9208 2.19442) scale(3.9545 4.67324)">
<stop offset="0.88" stop-color="#6945A9"/>
<stop offset="0.94" stop-color="#CF8AFF"/>
<stop offset="0.97" stop-color="#E8C7FC"/>
</radialGradient>
<radialGradient id="paint9_radial_431_502" cx="0" cy="0" r="1" gradientUnits="userSpaceOnUse" gradientTransform="translate(7.76135 1.73094) scale(1.23663 1.46139)">
<stop stop-color="#6125E5"/>
<stop offset="0.92" stop-color="#CF8AFF"/>
</radialGradient>
<radialGradient id="paint10_radial_431_502" cx="0" cy="0" r="1" gradientUnits="userSpaceOnUse" gradientTransform="translate(7.225 0.321808) scale(1.23663 1.46139)">
<stop stop-color="#A389F0"/>
<stop offset="1" stop-color="#6945A9"/>
</radialGradient>
<radialGradient id="paint11_radial_431_502" cx="0" cy="0" r="1" gradientUnits="userSpaceOnUse" gradientTransform="translate(10.0339 1.6747) rotate(10.5019) scale(2.18675 2.55982)">
<stop offset="0.74" stop-color="#A6BBBE"/>
<stop offset="0.85" stop-color="#A6BBBE"/>
<stop offset="0.98" stop-color="#A6BBBE"/>
</radialGradient>
<radialGradient id="paint12_radial_431_502" cx="0" cy="0" r="1" gradientUnits="userSpaceOnUse" gradientTransform="translate(13.7674 2.2503) scale(3.9545 4.67324)">
<stop offset="0.88" stop-color="#6945A9"/>
<stop offset="0.94" stop-color="#CF8AFF"/>
<stop offset="0.97" stop-color="#E8C7FC"/>
</radialGradient>
<radialGradient id="paint13_radial_431_502" cx="0" cy="0" r="1" gradientUnits="userSpaceOnUse" gradientTransform="translate(11.6079 1.78634) scale(1.23663 1.46139)">
<stop stop-color="#6125E5"/>
<stop offset="0.92" stop-color="#CF8AFF"/>
</radialGradient>
<radialGradient id="paint14_radial_431_502" cx="0" cy="0" r="1" gradientUnits="userSpaceOnUse" gradientTransform="translate(11.0716 0.376972) scale(1.23663 1.46139)">
<stop stop-color="#A389F0"/>
<stop offset="1" stop-color="#6945A9"/>
</radialGradient>
<radialGradient id="paint15_radial_431_502" cx="0" cy="0" r="1" gradientUnits="userSpaceOnUse" gradientTransform="translate(13.8904 1.74731) rotate(10.5019) scale(2.18675 2.55982)">
<stop offset="0.74" stop-color="#A6BBBE"/>
<stop offset="0.85" stop-color="#A6BBBE"/>
<stop offset="0.98" stop-color="#A6BBBE"/>
</radialGradient>
<radialGradient id="paint16_radial_431_502" cx="0" cy="0" r="1" gradientUnits="userSpaceOnUse" gradientTransform="translate(17.6141 2.30515) scale(3.9545 4.67324)">
<stop offset="0.88" stop-color="#6945A9"/>
<stop offset="0.94" stop-color="#CF8AFF"/>
<stop offset="0.97" stop-color="#E8C7FC"/>
</radialGradient>
<radialGradient id="paint17_radial_431_502" cx="0" cy="0" r="1" gradientUnits="userSpaceOnUse" gradientTransform="translate(15.4546 1.84221) scale(1.23663 1.46139)">
<stop stop-color="#6125E5"/>
<stop offset="0.92" stop-color="#CF8AFF"/>
</radialGradient>
<radialGradient id="paint18_radial_431_502" cx="0" cy="0" r="1" gradientUnits="userSpaceOnUse" gradientTransform="translate(14.9182 0.432845) scale(1.23663 1.46139)">
<stop stop-color="#A389F0"/>
<stop offset="1" stop-color="#6945A9"/>
</radialGradient>
<radialGradient id="paint19_radial_431_502" cx="0" cy="0" r="1" gradientUnits="userSpaceOnUse" gradientTransform="translate(17.7463 1.83357) rotate(10.5019) scale(2.18675 2.55982)">
<stop offset="0.74" stop-color="#A6BBBE"/>
<stop offset="0.85" stop-color="#A6BBBE"/>
<stop offset="0.98" stop-color="#A6BBBE"/>
</radialGradient>
<radialGradient id="paint20_radial_431_502" cx="0" cy="0" r="1" gradientUnits="userSpaceOnUse" gradientTransform="translate(21.4608 2.37263) scale(3.9545 4.67324)">
<stop offset="0.88" stop-color="#6945A9"/>
<stop offset="0.94" stop-color="#CF8AFF"/>
<stop offset="0.97" stop-color="#E8C7FC"/>
</radialGradient>
<radialGradient id="paint21_radial_431_502" cx="0" cy="0" r="1" gradientUnits="userSpaceOnUse" gradientTransform="translate(19.3013 1.91031) scale(1.23663 1.46139)">
<stop stop-color="#6125E5"/>
<stop offset="0.92" stop-color="#CF8AFF"/>
</radialGradient>
<radialGradient id="paint22_radial_431_502" cx="0" cy="0" r="1" gradientUnits="userSpaceOnUse" gradientTransform="translate(18.765 0.501176) scale(1.23663 1.46139)">
<stop stop-color="#A389F0"/>
<stop offset="1" stop-color="#6945A9"/>
</radialGradient>
<radialGradient id="paint23_radial_431_502" cx="0" cy="0" r="1" gradientUnits="userSpaceOnUse" gradientTransform="translate(21.6023 1.92293) rotate(10.5019) scale(2.18675 2.55982)">
<stop offset="0.74" stop-color="#A6BBBE"/>
<stop offset="0.85" stop-color="#A6BBBE"/>
<stop offset="0.98" stop-color="#A6BBBE"/>
</radialGradient>
<radialGradient id="paint24_radial_431_502" cx="0" cy="0" r="1" gradientUnits="userSpaceOnUse" gradientTransform="translate(25.3074 2.44465) scale(3.9545 4.67324)">
<stop offset="0.88" stop-color="#6945A9"/>
<stop offset="0.94" stop-color="#CF8AFF"/>
<stop offset="0.97" stop-color="#E8C7FC"/>
</radialGradient>
<radialGradient id="paint25_radial_431_502" cx="0" cy="0" r="1" gradientUnits="userSpaceOnUse" gradientTransform="translate(23.1479 1.98171) scale(1.23663 1.46139)">
<stop stop-color="#6125E5"/>
<stop offset="0.92" stop-color="#CF8AFF"/>
</radialGradient>
<radialGradient id="paint26_radial_431_502" cx="0" cy="0" r="1" gradientUnits="userSpaceOnUse" gradientTransform="translate(22.6115 0.572343) scale(1.23663 1.46139)">
<stop stop-color="#A389F0"/>
<stop offset="1" stop-color="#6945A9"/>
</radialGradient>
<linearGradient id="paint27_linear_431_502" x1="12.0822" y1="1.6242" x2="11.7461" y2="11.5356" gradientUnits="userSpaceOnUse">
<stop offset="0.36" stop-color="#F29E50"/>
<stop offset="0.39" stop-color="#F68C48"/>
<stop offset="0.44" stop-color="#FA7E41"/>
<stop offset="0.48" stop-color="#FB793F"/>
<stop offset="0.53" stop-color="#FA753D"/>
<stop offset="0.57" stop-color="#F66B36"/>
<stop offset="0.61" stop-color="#F0592A"/>
<stop offset="0.62" stop-color="#F05C2C"/>
<stop offset="0.7" stop-color="#F18A44"/>
<stop offset="0.74" stop-color="#F29B4E"/>
<stop offset="0.78" stop-color="#F78846"/>
<stop offset="0.81" stop-color="#FA7D41"/>
<stop offset="0.85" stop-color="#FB793F"/>
<stop offset="0.9" stop-color="#F9743C"/>
<stop offset="0.97" stop-color="#F46532"/>
<stop offset="1" stop-color="#F15B2C"/>
</linearGradient>
</defs>
</svg>
