<svg width="15" height="15" viewBox="0 0 15 15" fill="none" xmlns="http://www.w3.org/2000/svg">
<path d="M13.9704 12.6921L13.9695 12.6912L9.5777 8.45942L9.57746 8.4592L8.58586 7.51625L13.9695 2.34176C14.0825 2.23318 14.1746 2.1121 14.2326 1.97822C14.2896 1.84667 14.3244 1.70307 14.3244 1.55832C14.3244 1.40666 14.3019 1.26163 14.2319 1.12627C14.1755 0.996593 14.0958 0.86467 13.9914 0.764344L13.9914 0.764294L13.9895 0.762577C13.8776 0.665812 13.7524 0.577834 13.6139 0.522388C13.4749 0.466717 13.3148 0.445117 13.1682 0.445117C13.0184 0.445117 12.87 0.478337 12.7237 0.532433L12.7237 0.532416L12.7225 0.532915C12.584 0.58836 12.4582 0.676531 12.3559 0.77487L6.15699 6.733C6.05309 6.83286 5.97284 6.95437 5.91577 7.08601L5.91575 7.08601L5.91522 7.08733C5.8588 7.22831 5.82402 7.37157 5.82402 7.51644C5.82402 7.66119 5.85874 7.8048 5.91577 7.93635C5.97284 8.068 6.05309 8.1895 6.15699 8.28936L12.3559 14.2475L12.3559 14.2475L12.3569 14.2484C12.5752 14.4472 12.8615 14.5457 13.1572 14.5457C13.4553 14.5457 13.7414 14.4246 13.9476 14.2264C14.1648 14.0177 14.2803 13.7526 14.2805 13.465C14.2918 13.1768 14.1762 12.9009 13.9704 12.6921Z" fill="#B3B3B3" stroke="#B3B3B3" stroke-width="0.1"/>
<path d="M0.416274 2.29877L0.417192 2.29968L4.80902 6.53142L4.80926 6.53165L5.80086 7.47459L0.417236 12.6491C0.304262 12.7577 0.212148 12.8787 0.154109 13.0126C0.0970832 13.1442 0.0623656 13.2878 0.0623656 13.4325C0.0623656 13.5842 0.0848056 13.7292 0.15481 13.8646C0.211212 13.9943 0.29095 14.1262 0.395331 14.2265L0.395284 14.2266L0.397268 14.2283C0.50913 14.325 0.634364 14.413 0.772813 14.4685C0.911823 14.5241 1.07188 14.5457 1.21854 14.5457C1.36832 14.5457 1.51667 14.5125 1.66301 14.4584L1.66302 14.4584L1.66426 14.4579C1.80271 14.4025 1.92848 14.3143 2.03079 14.216L8.22973 8.25785C8.33363 8.15798 8.41388 8.03648 8.47095 7.90483L8.47097 7.90484L8.4715 7.90352C8.52792 7.76254 8.5627 7.61928 8.5627 7.4744C8.5627 7.32965 8.52798 7.18604 8.47095 7.0545C8.41388 6.92285 8.33363 6.80135 8.22973 6.70148L2.03079 0.743353L2.0308 0.743341L2.02981 0.742432C1.81148 0.543628 1.52523 0.445179 1.22949 0.445179C0.931427 0.445179 0.64531 0.566246 0.439142 0.764406C0.221956 0.973153 0.106442 1.23826 0.106176 1.5258C0.0949318 1.81409 0.210492 2.08999 0.416274 2.29877Z" fill="#B3B3B3" stroke="#B3B3B3" stroke-width="0.1"/>
</svg>
