<svg width="17" height="17" viewBox="0 0 17 17" fill="none" xmlns="http://www.w3.org/2000/svg">
<path d="M10.3096 15.5H7.30957C4.48132 15.5 3.06682 15.5 2.18857 14.621C1.30957 13.7427 1.30957 12.3282 1.30957 9.5V8C1.30957 5.17175 1.30957 3.75725 2.18857 2.879C3.06682 2 4.48132 2 7.30957 2H10.3096C13.1378 2 14.5523 2 15.4306 2.879C16.3096 3.75725 16.3096 5.17175 16.3096 8V9.5C16.3096 12.3282 16.3096 13.7427 15.4306 14.621C14.9408 15.1115 14.2846 15.3283 13.3096 15.4235M5.05957 2V0.875M12.5596 2V0.875M15.9346 5.75H7.87207M1.30957 5.75H4.21582" stroke="#EFEFFE" stroke-width="1.2" stroke-linecap="round"/>
<path d="M13.3096 11.75C13.3096 11.9489 13.2306 12.1397 13.0899 12.2803C12.9492 12.421 12.7585 12.5 12.5596 12.5C12.3607 12.5 12.1699 12.421 12.0292 12.2803C11.8886 12.1397 11.8096 11.9489 11.8096 11.75C11.8096 11.5511 11.8886 11.3603 12.0292 11.2197C12.1699 11.079 12.3607 11 12.5596 11C12.7585 11 12.9492 11.079 13.0899 11.2197C13.2306 11.3603 13.3096 11.5511 13.3096 11.75ZM13.3096 8.75C13.3096 8.94891 13.2306 9.13968 13.0899 9.28033C12.9492 9.42098 12.7585 9.5 12.5596 9.5C12.3607 9.5 12.1699 9.42098 12.0292 9.28033C11.8886 9.13968 11.8096 8.94891 11.8096 8.75C11.8096 8.55109 11.8886 8.36032 12.0292 8.21967C12.1699 8.07902 12.3607 8 12.5596 8C12.7585 8 12.9492 8.07902 13.0899 8.21967C13.2306 8.36032 13.3096 8.55109 13.3096 8.75ZM9.55957 11.75C9.55957 11.9489 9.48055 12.1397 9.3399 12.2803C9.19925 12.421 9.00848 12.5 8.80957 12.5C8.61066 12.5 8.41989 12.421 8.27924 12.2803C8.13859 12.1397 8.05957 11.9489 8.05957 11.75C8.05957 11.5511 8.13859 11.3603 8.27924 11.2197C8.41989 11.079 8.61066 11 8.80957 11C9.00848 11 9.19925 11.079 9.3399 11.2197C9.48055 11.3603 9.55957 11.5511 9.55957 11.75ZM9.55957 8.75C9.55957 8.94891 9.48055 9.13968 9.3399 9.28033C9.19925 9.42098 9.00848 9.5 8.80957 9.5C8.61066 9.5 8.41989 9.42098 8.27924 9.28033C8.13859 9.13968 8.05957 8.94891 8.05957 8.75C8.05957 8.55109 8.13859 8.36032 8.27924 8.21967C8.41989 8.07902 8.61066 8 8.80957 8C9.00848 8 9.19925 8.07902 9.3399 8.21967C9.48055 8.36032 9.55957 8.55109 9.55957 8.75ZM5.80957 11.75C5.80957 11.9489 5.73055 12.1397 5.5899 12.2803C5.44925 12.421 5.25848 12.5 5.05957 12.5C4.86066 12.5 4.66989 12.421 4.52924 12.2803C4.38859 12.1397 4.30957 11.9489 4.30957 11.75C4.30957 11.5511 4.38859 11.3603 4.52924 11.2197C4.66989 11.079 4.86066 11 5.05957 11C5.25848 11 5.44925 11.079 5.5899 11.2197C5.73055 11.3603 5.80957 11.5511 5.80957 11.75ZM5.80957 8.75C5.80957 8.94891 5.73055 9.13968 5.5899 9.28033C5.44925 9.42098 5.25848 9.5 5.05957 9.5C4.86066 9.5 4.66989 9.42098 4.52924 9.28033C4.38859 9.13968 4.30957 8.94891 4.30957 8.75C4.30957 8.55109 4.38859 8.36032 4.52924 8.21967C4.66989 8.07902 4.86066 8 5.05957 8C5.25848 8 5.44925 8.07902 5.5899 8.21967C5.73055 8.36032 5.80957 8.55109 5.80957 8.75Z" fill="#EFEFFE"/>
</svg>
