<svg width="20" height="20" viewBox="0 0 20 20" fill="none" xmlns="http://www.w3.org/2000/svg">
<path d="M11.4995 5.16674L11.2433 4.91012V5.27271V12.7114C11.2433 13.0213 11.1202 13.3185 10.9011 13.5376C10.682 13.7568 10.3848 13.8799 10.0749 13.8799C9.76499 13.8799 9.46778 13.7568 9.24866 13.5376C9.02953 13.3185 8.90642 13.0213 8.90642 12.7114V5.27271V4.91035L8.65031 5.16669L7.17241 6.64591C7.1724 6.64592 7.17238 6.64594 7.17236 6.64595C6.95294 6.8652 6.65541 6.98831 6.34522 6.9882C6.03501 6.98809 5.73755 6.86475 5.51827 6.64532C5.299 6.42589 5.17587 6.12835 5.17598 5.81813C5.17609 5.50792 5.29943 5.21046 5.51886 4.99118L9.24876 1.26392L9.2491 1.26358C9.35732 1.15473 9.48599 1.06836 9.62771 1.00942C9.76942 0.950484 9.92139 0.920142 10.0749 0.920142C10.2284 0.920142 10.3803 0.950484 10.5221 1.00942C10.6638 1.06836 10.7924 1.15473 10.9007 1.26358L10.901 1.2639L14.6308 4.99243C14.6308 4.99245 14.6309 4.99247 14.6309 4.99249C14.7394 5.10112 14.8255 5.23008 14.8842 5.37198C14.943 5.51391 14.9732 5.66602 14.9731 5.81962C14.9731 5.97322 14.9428 6.12531 14.8839 6.2672C14.8251 6.40908 14.7389 6.53799 14.6302 6.64657C14.5216 6.75514 14.3926 6.84125 14.2507 6.89998C14.1088 6.95871 13.9567 6.98891 13.8031 6.98886C13.6495 6.98881 13.4974 6.9585 13.3555 6.89967C13.2136 6.84084 13.0847 6.75463 12.9761 6.64598L11.4995 5.16674ZM3.48261 11.1691H3.33261V11.3191V16.593V16.743H3.48261H16.6671H16.8171V16.593V11.3191V11.1691H16.6671H15.3487C15.0388 11.1691 14.7416 11.046 14.5225 10.8269C14.3033 10.6078 14.1802 10.3106 14.1802 10.0007C14.1802 9.69079 14.3033 9.39359 14.5225 9.17446C14.7416 8.95533 15.0388 8.83223 15.3487 8.83223H16.6671C17.3267 8.83223 17.9593 9.09424 18.4257 9.56063C18.892 10.027 19.1541 10.6596 19.1541 11.3191V16.593C19.1541 17.2525 18.892 17.8851 18.4257 18.3515C17.9593 18.8178 17.3267 19.0799 16.6671 19.0799H3.48261C2.82304 19.0799 2.19049 18.8178 1.7241 18.3515C1.25772 17.8851 0.995703 17.2525 0.995703 16.593V11.3191C0.995703 10.6596 1.25772 10.027 1.7241 9.56063C2.19049 9.09424 2.82304 8.83223 3.48261 8.83223H4.80106C5.11096 8.83223 5.40816 8.95533 5.62729 9.17446C5.84641 9.39359 5.96952 9.69079 5.96952 10.0007C5.96952 10.3106 5.84641 10.6078 5.62729 10.8269C5.40816 11.046 5.11096 11.1691 4.80106 11.1691H3.48261Z" fill="#181725" stroke="white" stroke-width="0.3"/>
</svg>
