<svg width="16" height="9" viewBox="0 0 16 9" fill="none" xmlns="http://www.w3.org/2000/svg">
<path d="M13.1664 1.02722L13.1664 1.0272L13.1645 1.02901L8.94446 5.21617L8.94399 5.21664L8.03823 6.12726L2.91275 1.0291C2.80093 0.917869 2.67488 0.825805 2.53409 0.767457C2.39792 0.711021 2.24845 0.676303 2.09689 0.676303C1.94183 0.676303 1.78964 0.698129 1.64608 0.768749C1.51361 0.823994 1.37639 0.902925 1.27053 1.00822L1.27044 1.00812L1.2669 1.01202C1.16831 1.12099 1.07637 1.24541 1.01787 1.38506C0.958831 1.526 0.936621 1.68618 0.936621 1.83092C0.936621 1.98217 0.971704 2.13036 1.02733 2.27422L1.0273 2.27423L1.02837 2.27679C1.08688 2.41646 1.17922 2.54192 1.28103 2.64319L7.22275 8.55324C7.32768 8.65762 7.45459 8.7375 7.59091 8.794L7.59089 8.79404L7.59346 8.79502C7.73801 8.85032 7.8868 8.88516 8.03861 8.88516C8.19016 8.88516 8.33963 8.85044 8.47581 8.794C8.61213 8.7375 8.73903 8.65762 8.84397 8.55324L14.7857 2.64319L14.7857 2.64322L14.7876 2.64126C14.9958 2.42259 15.0986 2.13611 15.0986 1.84137C15.0986 1.54181 14.9715 1.25565 14.7647 1.04998C14.5473 0.833799 14.2709 0.718558 13.9717 0.718072C13.6711 0.70711 13.3838 0.822405 13.1664 1.02722ZM1.1206 2.23815C1.06811 2.10241 1.03662 1.96667 1.03662 1.83092C1.03662 1.69518 1.05762 1.549 1.11011 1.42369C1.16259 1.29839 1.24658 1.18353 1.34106 1.07912C1.43553 0.985139 1.56151 0.912047 1.68748 0.859838L1.1206 2.23815Z" fill="#181725" stroke="#181725" stroke-width="0.2"/>
</svg>
