<svg width="19" height="18" viewBox="0 0 19 18" fill="none" xmlns="http://www.w3.org/2000/svg">
<path d="M4.43865 10.4414L3.80577 12.6859L1.4926 12.7324C0.801296 11.5143 0.40918 10.1206 0.40918 8.63963C0.40918 7.20751 0.775799 5.857 1.42566 4.66785H1.42615L3.48553 5.02653L4.38766 6.97119C4.19885 7.49413 4.09593 8.05549 4.09593 8.63963C4.09601 9.27359 4.21689 9.881 4.43865 10.4414Z" fill="#FBBB00"/>
<path d="M18.4324 7.02625C18.5368 7.54868 18.5912 8.08821 18.5912 8.63963C18.5912 9.25794 18.5228 9.86106 18.3925 10.4428C17.9499 12.4226 16.7936 14.1512 15.1917 15.3746L15.1912 15.3741L12.5973 15.2484L12.2302 13.0712C13.2931 12.479 14.1238 11.5523 14.5613 10.4428H9.7002V7.02625H14.6323H18.4324Z" fill="#518EF8"/>
<path d="M15.191 15.3742L15.1915 15.3747C13.6335 16.5643 11.6545 17.2761 9.50017 17.2761C6.03813 17.2761 3.02815 15.4378 1.49268 12.7325L4.43873 10.4415C5.20645 12.388 7.18298 13.7736 9.50017 13.7736C10.4962 13.7736 11.4293 13.5179 12.2299 13.0713L15.191 15.3742Z" fill="#28B446"/>
<path d="M15.3029 1.99155L12.3579 4.28207C11.5292 3.79 10.5496 3.50575 9.50021 3.50575C7.13058 3.50575 5.11708 4.95494 4.38782 6.97122L1.42628 4.66788H1.42578C2.93878 1.89665 5.98672 0.0032959 9.50021 0.0032959C11.706 0.0032959 13.7285 0.749734 15.3029 1.99155Z" fill="#F14336"/>
</svg>
