<svg width="19" height="19" viewBox="0 0 19 19" fill="none" xmlns="http://www.w3.org/2000/svg">
<g clip-path="url(#clip0_431_496)">
<path d="M15.9396 4.40089C15.5565 4.01764 15.1017 3.71362 14.6011 3.5062C14.1005 3.29878 13.5639 3.19202 13.0221 3.19202C12.4802 3.19202 11.9436 3.29878 11.4431 3.5062C10.9425 3.71362 10.4876 4.01764 10.1046 4.40089L9.30957 5.19589L8.51457 4.40089C7.7408 3.62712 6.69134 3.19242 5.59707 3.19242C4.50279 3.19242 3.45334 3.62712 2.67957 4.40089C1.9058 5.17466 1.4711 6.22411 1.4711 7.31839C1.4711 8.41266 1.9058 9.46212 2.67957 10.2359L3.47457 11.0309L9.30957 16.8659L15.1446 11.0309L15.9396 10.2359C16.3228 9.85282 16.6268 9.398 16.8343 8.8974C17.0417 8.39681 17.1484 7.86025 17.1484 7.31839C17.1484 6.77652 17.0417 6.23996 16.8343 5.73937C16.6268 5.23878 16.3228 4.78395 15.9396 4.40089Z" stroke="black" stroke-width="2" stroke-linecap="round" stroke-linejoin="round"/>
</g>
<defs>
<clipPath id="clip0_431_496">
<rect width="18" height="18" fill="white" transform="translate(0.30957 0.943359)"/>
</clipPath>
</defs>
</svg>
