<svg width="19" height="13" viewBox="0 0 19 13" fill="none" xmlns="http://www.w3.org/2000/svg">
<path d="M1.22102 8.41206C2.05015 4.68399 5.51617 2.03507 9.41499 2.03507C13.3126 2.03507 16.7786 4.68399 17.609 8.41206C17.6418 8.56 17.7361 8.68964 17.8711 8.77247C18.0061 8.8553 18.1707 8.88453 18.3287 8.85374C18.4867 8.82294 18.6251 8.73465 18.7136 8.60826C18.802 8.48188 18.8332 8.32778 18.8004 8.17984C17.8557 3.93952 13.9046 0.896729 9.41499 0.896729C4.92533 0.896729 0.974234 3.93952 0.0296177 8.17984C-0.00327009 8.32778 0.0279506 8.48188 0.116411 8.60826C0.204872 8.73465 0.343327 8.82294 0.501318 8.85374C0.659308 8.88453 0.823892 8.8553 0.958864 8.77247C1.09384 8.68964 1.18814 8.56 1.22102 8.41206ZM9.40283 4.31175C10.5313 4.31175 11.6136 4.73152 12.4116 5.4787C13.2096 6.22588 13.6579 7.23928 13.6579 8.29595C13.6579 9.35263 13.2096 10.366 12.4116 11.1132C11.6136 11.8604 10.5313 12.2801 9.40283 12.2801C8.27433 12.2801 7.19205 11.8604 6.39407 11.1132C5.5961 10.366 5.14781 9.35263 5.14781 8.29595C5.14781 7.23928 5.5961 6.22588 6.39407 5.4787C7.19205 4.73152 8.27433 4.31175 9.40283 4.31175Z" fill="#6A707C"/>
</svg>
