<svg width="33" height="34" viewBox="0 0 33 34" fill="none" xmlns="http://www.w3.org/2000/svg">
<path d="M16.5 1.25C25.1985 1.25 32.25 8.30152 32.25 17C32.25 25.6985 25.1985 32.75 16.5 32.75C7.80152 32.75 0.75 25.6985 0.75 17C0.75 8.30152 7.80152 1.25 16.5 1.25Z" stroke="white" stroke-width="1.5"/>
<path fill-rule="evenodd" clip-rule="evenodd" d="M13.455 17.7949C13.2443 17.584 13.126 17.2981 13.126 16.9999C13.126 16.7018 13.2443 16.4159 13.455 16.2049L17.697 11.9614C17.908 11.7505 18.1942 11.632 18.4926 11.6321C18.791 11.6322 19.0771 11.7508 19.2881 11.9618C19.499 12.1729 19.6175 12.4591 19.6174 12.7575C19.6174 13.0559 19.4988 13.342 19.2877 13.5529L15.8407 16.9999L19.2877 20.4469C19.4927 20.659 19.6063 20.9431 19.6038 21.2381C19.6014 21.5331 19.4832 21.8153 19.2748 22.024C19.0663 22.2327 18.7842 22.3511 18.4892 22.3538C18.1942 22.3565 17.91 22.2433 17.6977 22.0384L13.4542 17.7957L13.455 17.7949Z" fill="white"/>
</svg>
