<svg width="16" height="16" viewBox="0 0 16 16" fill="none" xmlns="http://www.w3.org/2000/svg">
<path d="M15.2974 7.80837C15.2974 8.13441 15.1724 8.44957 14.9386 8.6778C14.7103 8.91146 14.3951 9.04187 14.0689 9.04187H9.15484V13.9541C9.15484 14.2802 9.02438 14.5953 8.79064 14.8235C8.56233 15.0518 8.25248 15.1822 7.92633 15.1822C7.60017 15.1822 7.28489 15.0518 7.05658 14.8235C6.82284 14.5953 6.69238 14.2802 6.69238 13.9541V9.04187H1.77832C1.45216 9.04187 1.13688 8.91146 0.908574 8.6778C0.680266 8.44957 0.549805 8.13441 0.549805 7.80837C0.549805 7.48234 0.680266 7.17261 0.908574 6.93895C1.13688 6.71073 1.45216 6.58031 1.77832 6.58031H6.69238V1.66807C6.69238 1.34203 6.82284 1.02687 7.05658 0.798642C7.28489 0.564984 7.60017 0.43457 7.92633 0.43457C8.25248 0.43457 8.56233 0.564984 8.79064 0.798642C9.02438 1.02687 9.15484 1.34203 9.15484 1.66807V6.58031H14.0689C14.3951 6.58031 14.7103 6.71073 14.9386 6.93895C15.1724 7.17261 15.2974 7.48234 15.2974 7.80837Z" fill="#8B19A4"/>
</svg>
