<svg width="20" height="20" viewBox="0 0 20 20" fill="none" xmlns="http://www.w3.org/2000/svg">
<path d="M8.93751 14.898C9.72328 14.898 10.5013 14.7428 11.2273 14.4412C11.9533 14.1397 12.6129 13.6978 13.1685 13.1406C13.7241 12.5835 14.1649 11.922 14.4656 11.1941C14.7663 10.4661 14.921 9.6859 14.921 8.89796C14.921 8.11003 14.7663 7.32982 14.4656 6.60186C14.1649 5.87391 13.7241 5.21247 13.1685 4.65532C12.6129 4.09817 11.9533 3.65622 11.2273 3.35469C10.5013 3.05316 9.72328 2.89796 8.93751 2.89796C7.35058 2.89796 5.82865 3.53011 4.70652 4.65532C3.5844 5.78054 2.95399 7.30667 2.95399 8.89796C2.95399 10.4893 3.5844 12.0154 4.70652 13.1406C5.82865 14.2658 7.35058 14.898 8.93751 14.898ZM15.2401 13.804L18.8103 17.384C18.9055 17.4763 18.9814 17.5867 19.0336 17.7087C19.0857 17.8308 19.1132 17.962 19.1142 18.0948C19.1153 18.2276 19.0899 18.3592 19.0397 18.4821C18.9895 18.6049 18.9154 18.7165 18.8217 18.8104C18.728 18.9042 18.6166 18.9784 18.494 19.0286C18.3714 19.0787 18.24 19.104 18.1076 19.1027C17.9752 19.1015 17.8444 19.0738 17.7227 19.0213C17.6011 18.9688 17.4911 18.8925 17.3992 18.797L13.829 15.217C12.2259 16.4648 10.2088 17.0531 8.18833 16.8622C6.16785 16.6712 4.2959 15.7153 2.95354 14.189C1.61119 12.6628 0.899337 10.6809 0.962903 8.64689C1.02647 6.61287 1.86067 4.67959 3.2957 3.24061C4.73072 1.80163 6.65869 0.965131 8.68712 0.90139C10.7156 0.837649 12.692 1.55146 14.214 2.89752C15.7361 4.24357 16.6894 6.12068 16.8798 8.14672C17.0703 10.1728 16.4836 12.1954 15.2391 13.803L15.2401 13.804Z" fill="#181B19"/>
</svg>
