<svg width="20" height="20" viewBox="0 0 20 20" fill="none" xmlns="http://www.w3.org/2000/svg">
<path d="M7.68264 18.1126C8.1094 18.1126 8.45537 17.7666 8.45537 17.3399C8.45537 16.9131 8.1094 16.5671 7.68264 16.5671C7.25587 16.5671 6.90991 16.9131 6.90991 17.3399C6.90991 17.7666 7.25587 18.1126 7.68264 18.1126Z" stroke="black" stroke-width="2" stroke-linecap="round" stroke-linejoin="round"/>
<path d="M16.1826 18.1126C16.6094 18.1126 16.9554 17.7666 16.9554 17.3399C16.9554 16.9131 16.6094 16.5671 16.1826 16.5671C15.7559 16.5671 15.4099 16.9131 15.4099 17.3399C15.4099 17.7666 15.7559 18.1126 16.1826 18.1126Z" stroke="black" stroke-width="2" stroke-linecap="round" stroke-linejoin="round"/>
<path d="M1.5 1.88672H4.59091L6.66182 12.2335C6.73248 12.5893 6.92602 12.9089 7.20856 13.1363C7.4911 13.3638 7.84463 13.4846 8.20727 13.4776H15.7182C16.0808 13.4846 16.4344 13.3638 16.7169 13.1363C16.9994 12.9089 17.193 12.5893 17.2636 12.2335L18.5 5.75036H5.36364" stroke="black" stroke-width="2" stroke-linecap="round" stroke-linejoin="round"/>
</svg>
