<svg width="19" height="18" viewBox="0 0 19 18" fill="none" xmlns="http://www.w3.org/2000/svg">
<path d="M11.3096 16.5H8.30957C5.48132 16.5 4.06682 16.5 3.18857 15.621C2.30957 14.7427 2.30957 13.3282 2.30957 10.5V9C2.30957 6.17175 2.30957 4.75725 3.18857 3.879C4.06682 3 5.48132 3 8.30957 3H11.3096C14.1378 3 15.5523 3 16.4306 3.879C17.3096 4.75725 17.3096 6.17175 17.3096 9V10.5C17.3096 13.3282 17.3096 14.7427 16.4306 15.621C15.9408 16.1115 15.2846 16.3283 14.3096 16.4235M6.05957 3V1.875M13.5596 3V1.875M16.9346 6.75H8.87207M2.30957 6.75H5.21582" stroke="#EFEFFE" stroke-width="1.2" stroke-linecap="round"/>
<path d="M14.3096 12.75C14.3096 12.9489 14.2306 13.1397 14.0899 13.2803C13.9492 13.421 13.7585 13.5 13.5596 13.5C13.3607 13.5 13.1699 13.421 13.0292 13.2803C12.8886 13.1397 12.8096 12.9489 12.8096 12.75C12.8096 12.5511 12.8886 12.3603 13.0292 12.2197C13.1699 12.079 13.3607 12 13.5596 12C13.7585 12 13.9492 12.079 14.0899 12.2197C14.2306 12.3603 14.3096 12.5511 14.3096 12.75ZM14.3096 9.75C14.3096 9.94891 14.2306 10.1397 14.0899 10.2803C13.9492 10.421 13.7585 10.5 13.5596 10.5C13.3607 10.5 13.1699 10.421 13.0292 10.2803C12.8886 10.1397 12.8096 9.94891 12.8096 9.75C12.8096 9.55109 12.8886 9.36032 13.0292 9.21967C13.1699 9.07902 13.3607 9 13.5596 9C13.7585 9 13.9492 9.07902 14.0899 9.21967C14.2306 9.36032 14.3096 9.55109 14.3096 9.75ZM10.5596 12.75C10.5596 12.9489 10.4806 13.1397 10.3399 13.2803C10.1992 13.421 10.0085 13.5 9.80957 13.5C9.61066 13.5 9.41989 13.421 9.27924 13.2803C9.13859 13.1397 9.05957 12.9489 9.05957 12.75C9.05957 12.5511 9.13859 12.3603 9.27924 12.2197C9.41989 12.079 9.61066 12 9.80957 12C10.0085 12 10.1992 12.079 10.3399 12.2197C10.4806 12.3603 10.5596 12.5511 10.5596 12.75ZM10.5596 9.75C10.5596 9.94891 10.4806 10.1397 10.3399 10.2803C10.1992 10.421 10.0085 10.5 9.80957 10.5C9.61066 10.5 9.41989 10.421 9.27924 10.2803C9.13859 10.1397 9.05957 9.94891 9.05957 9.75C9.05957 9.55109 9.13859 9.36032 9.27924 9.21967C9.41989 9.07902 9.61066 9 9.80957 9C10.0085 9 10.1992 9.07902 10.3399 9.21967C10.4806 9.36032 10.5596 9.55109 10.5596 9.75ZM6.80957 12.75C6.80957 12.9489 6.73055 13.1397 6.5899 13.2803C6.44925 13.421 6.25848 13.5 6.05957 13.5C5.86066 13.5 5.66989 13.421 5.52924 13.2803C5.38859 13.1397 5.30957 12.9489 5.30957 12.75C5.30957 12.5511 5.38859 12.3603 5.52924 12.2197C5.66989 12.079 5.86066 12 6.05957 12C6.25848 12 6.44925 12.079 6.5899 12.2197C6.73055 12.3603 6.80957 12.5511 6.80957 12.75ZM6.80957 9.75C6.80957 9.94891 6.73055 10.1397 6.5899 10.2803C6.44925 10.421 6.25848 10.5 6.05957 10.5C5.86066 10.5 5.66989 10.421 5.52924 10.2803C5.38859 10.1397 5.30957 9.94891 5.30957 9.75C5.30957 9.55109 5.38859 9.36032 5.52924 9.21967C5.66989 9.07902 5.86066 9 6.05957 9C6.25848 9 6.44925 9.07902 6.5899 9.21967C6.73055 9.36032 6.80957 9.55109 6.80957 9.75Z" fill="#EFEFFE"/>
</svg>
