<svg width="20" height="21" viewBox="0 0 20 21" fill="none" xmlns="http://www.w3.org/2000/svg">
<path d="M8.38008 18.8225C8.53956 19.1126 8.77401 19.3545 9.05893 19.523C9.34385 19.6915 9.66879 19.7804 9.9998 19.7804C10.3308 19.7804 10.6558 19.6915 10.9407 19.523C11.2256 19.3545 11.46 19.1126 11.6195 18.8225M4.28314 6.43639C4.28314 4.92024 4.88543 3.46618 5.95751 2.3941C7.02959 1.32202 8.48365 0.719727 9.9998 0.719727C11.516 0.719727 12.97 1.32202 14.0421 2.3941C15.1142 3.46618 15.7165 4.92024 15.7165 6.43639C15.7165 13.1058 18.5748 15.0114 18.5748 15.0114H1.4248C1.4248 15.0114 4.28314 13.1058 4.28314 6.43639Z" stroke="#253C61" stroke-width="1.35" stroke-linecap="round" stroke-linejoin="round"/>
</svg>
