<svg width="18" height="18" viewBox="0 0 18 18" fill="none" xmlns="http://www.w3.org/2000/svg">
<path d="M14.015 11.102C13.9192 11.319 13.8907 11.5597 13.933 11.7931C13.9753 12.0266 14.0866 12.2419 14.2525 12.4115L14.2956 12.4547C14.4295 12.5884 14.5356 12.7471 14.608 12.9218C14.6804 13.0965 14.7177 13.2837 14.7177 13.4729C14.7177 13.662 14.6804 13.8492 14.608 14.0239C14.5356 14.1986 14.4295 14.3574 14.2956 14.491C14.162 14.6248 14.0033 14.731 13.8286 14.8034C13.6539 14.8758 13.4666 14.9131 13.2775 14.9131C13.0884 14.9131 12.9011 14.8758 12.7264 14.8034C12.5517 14.731 12.393 14.6248 12.2593 14.491L12.2162 14.4478C12.0466 14.282 11.8312 14.1707 11.5978 14.1284C11.3644 14.086 11.1236 14.1146 10.9066 14.2104C10.6938 14.3016 10.5123 14.4531 10.3844 14.6461C10.2566 14.8391 10.188 15.0654 10.187 15.2969V15.4192C10.187 15.8009 10.0354 16.1669 9.76554 16.4368C9.49566 16.7067 9.12962 16.8583 8.74795 16.8583C8.36628 16.8583 8.00025 16.7067 7.73036 16.4368C7.46048 16.1669 7.30886 15.8009 7.30886 15.4192V15.3545C7.30329 15.1163 7.2262 14.8853 7.08761 14.6916C6.94902 14.4978 6.75534 14.3502 6.53175 14.268C6.31473 14.1722 6.07398 14.1436 5.84057 14.1859C5.60715 14.2282 5.39176 14.3395 5.22218 14.5054L5.17901 14.5486C5.04536 14.6824 4.88664 14.7885 4.71194 14.8609C4.53723 14.9334 4.34997 14.9706 4.16085 14.9706C3.97173 14.9706 3.78447 14.9334 3.60977 14.8609C3.43506 14.7885 3.27635 14.6824 3.1427 14.5486C3.00889 14.4149 2.90275 14.2562 2.83033 14.0815C2.75791 13.9068 2.72063 13.7195 2.72063 13.5304C2.72063 13.3413 2.75791 13.154 2.83033 12.9793C2.90275 12.8046 3.00889 12.6459 3.1427 12.5123L3.18587 12.4691C3.35175 12.2995 3.46303 12.0841 3.50535 11.8507C3.54767 11.6173 3.5191 11.3765 3.42332 11.1595C3.33211 10.9467 3.18066 10.7652 2.98761 10.6374C2.79456 10.5095 2.56834 10.4409 2.3368 10.44H2.21448C1.83281 10.44 1.46677 10.2884 1.19689 10.0185C0.927009 9.74859 0.775391 9.38255 0.775391 9.00088C0.775391 8.61921 0.927009 8.25317 1.19689 7.98329C1.46677 7.71341 1.83281 7.56179 2.21448 7.56179H2.27924C2.51741 7.55622 2.74839 7.47913 2.94216 7.34054C3.13593 7.20195 3.28352 7.00827 3.36575 6.78468C3.46154 6.56766 3.49011 6.32691 3.44779 6.0935C3.40546 5.86008 3.29419 5.64469 3.1283 5.47511L3.08513 5.43194C2.95133 5.29829 2.84518 5.13957 2.77276 4.96487C2.70034 4.79016 2.66307 4.6029 2.66307 4.41378C2.66307 4.22466 2.70034 4.0374 2.77276 3.8627C2.84518 3.68799 2.95133 3.52928 3.08513 3.39562C3.21878 3.26182 3.3775 3.15568 3.5522 3.08326C3.72691 3.01083 3.91417 2.97356 4.10329 2.97356C4.29241 2.97356 4.47967 3.01083 4.65437 3.08326C4.82908 3.15568 4.98779 3.26182 5.12144 3.39562L5.16462 3.4388C5.3342 3.60468 5.54959 3.71596 5.783 3.75828C6.01642 3.8006 6.25716 3.77203 6.47419 3.67625H6.53175C6.74457 3.58504 6.92608 3.43358 7.05392 3.24054C7.18177 3.04749 7.25038 2.82127 7.2513 2.58973V2.46741C7.2513 2.08574 7.40292 1.7197 7.6728 1.44982C7.94268 1.17994 8.30872 1.02832 8.69039 1.02832C9.07206 1.02832 9.4381 1.17994 9.70798 1.44982C9.97786 1.7197 10.1295 2.08574 10.1295 2.46741V2.53217C10.1304 2.76371 10.199 2.98993 10.3269 3.18297C10.4547 3.37602 10.6362 3.52747 10.849 3.61868C11.0661 3.71447 11.3068 3.74304 11.5402 3.70072C11.7736 3.65839 11.989 3.54712 12.1586 3.38123L12.2018 3.33806C12.3354 3.20426 12.4941 3.09811 12.6688 3.02569C12.8435 2.95327 13.0308 2.91599 13.2199 2.91599C13.409 2.91599 13.5963 2.95327 13.771 3.02569C13.9457 3.09811 14.1044 3.20426 14.2381 3.33806C14.3719 3.47171 14.478 3.63043 14.5505 3.80513C14.6229 3.97983 14.6602 4.1671 14.6602 4.35622C14.6602 4.54534 14.6229 4.7326 14.5505 4.9073C14.478 5.08201 14.3719 5.24072 14.2381 5.37437L14.1949 5.41755C14.029 5.58713 13.9178 5.80252 13.8754 6.03593C13.8331 6.26935 13.8617 6.51009 13.9575 6.72712V6.78468C14.0487 6.9975 14.2001 7.17901 14.3932 7.30685C14.5862 7.4347 14.8124 7.50331 15.044 7.50423H15.1663C15.548 7.50423 15.914 7.65585 16.1839 7.92573C16.4538 8.19561 16.6054 8.56165 16.6054 8.94332C16.6054 9.32499 16.4538 9.69103 16.1839 9.96091C15.914 10.2308 15.548 10.3824 15.1663 10.3824H15.1015C14.87 10.3833 14.6438 10.4519 14.4507 10.5798C14.2577 10.7076 14.1062 10.8891 14.015 11.102Z" stroke="black" stroke-width="1.5" stroke-linecap="round" stroke-linejoin="round"/>
</svg>
